<svg width="29" height="25" viewBox="0 0 29 25" fill="none" xmlns="http://www.w3.org/2000/svg">
<path fill-rule="evenodd" clip-rule="evenodd" d="M23.7184 7.23774C23.3055 6.61899 22.59 6.25024 21.8048 6.25024H7.40475L6.71062 3.89295C6.57675 3.43983 6.13238 3.12524 5.625 3.12524H3.375C2.75288 3.12524 2.25 3.59191 2.25 4.16691C2.25 4.74191 2.75288 5.20858 3.375 5.20858H4.7655L7.91437 15.8992C8.04825 16.3523 8.49262 16.6669 9 16.6669H19.125C19.5514 16.6669 19.9406 16.444 20.1319 16.0909L23.8174 9.26483C24.1684 8.61379 24.1313 7.85649 23.7184 7.23774ZM8.4375 18.75C7.506 18.75 6.75 19.449 6.75 20.3125C6.75 21.1761 7.506 21.875 8.4375 21.875C9.369 21.875 10.125 21.1761 10.125 20.3125C10.125 19.449 9.369 18.75 8.4375 18.75ZM18 20.3125C18 19.449 18.756 18.75 19.6875 18.75C20.619 18.75 21.375 19.449 21.375 20.3125C21.375 21.1761 20.619 21.875 19.6875 21.875C18.756 21.875 18 21.1761 18 20.3125Z" fill="#A6A6A6"/>
<mask id="mask0_19_1237" style="mask-type:luminance" maskUnits="userSpaceOnUse" x="2" y="3" width="23" height="19">
<path fill-rule="evenodd" clip-rule="evenodd" d="M23.7184 7.23774C23.3055 6.61899 22.59 6.25024 21.8048 6.25024H7.40475L6.71062 3.89295C6.57675 3.43983 6.13238 3.12524 5.625 3.12524H3.375C2.75288 3.12524 2.25 3.59191 2.25 4.16691C2.25 4.74191 2.75288 5.20858 3.375 5.20858H4.7655L7.91437 15.8992C8.04825 16.3523 8.49262 16.6669 9 16.6669H19.125C19.5514 16.6669 19.9406 16.444 20.1319 16.0909L23.8174 9.26483C24.1684 8.61379 24.1313 7.85649 23.7184 7.23774ZM8.4375 18.75C7.506 18.75 6.75 19.449 6.75 20.3125C6.75 21.1761 7.506 21.875 8.4375 21.875C9.369 21.875 10.125 21.1761 10.125 20.3125C10.125 19.449 9.369 18.75 8.4375 18.75ZM18 20.3125C18 19.449 18.756 18.75 19.6875 18.75C20.619 18.75 21.375 19.449 21.375 20.3125C21.375 21.1761 20.619 21.875 19.6875 21.875C18.756 21.875 18 21.1761 18 20.3125Z" fill="white"/>
</mask>
<g mask="url(#mask0_19_1237)">
<rect width="27" height="25" fill="#A6A6A6"/>
</g>
<circle cx="24" cy="5" r="5" fill="#DD2F30"/>
</svg>
