<svg width="21" height="20" viewBox="0 0 21 20" fill="none" xmlns="http://www.w3.org/2000/svg">
<path fill-rule="evenodd" clip-rule="evenodd" d="M4.375 9.16667C4.375 6.40917 6.72962 4.16667 9.625 4.16667C12.5204 4.16667 14.875 6.40917 14.875 9.16667C14.875 11.9242 12.5204 14.1667 9.625 14.1667C6.72962 14.1667 4.375 11.9242 4.375 9.16667M18.1186 16.0775L15.148 13.2475C16.0694 12.1192 16.625 10.705 16.625 9.16667C16.625 5.49083 13.4846 2.5 9.625 2.5C5.76538 2.5 2.625 5.49083 2.625 9.16667C2.625 12.8425 5.76538 15.8333 9.625 15.8333C11.2403 15.8333 12.7251 15.3042 13.9099 14.4267L16.8814 17.2558C17.052 17.4183 17.276 17.5 17.5 17.5C17.724 17.5 17.948 17.4183 18.1186 17.2558C18.4608 16.93 18.4608 16.4033 18.1186 16.0775" fill="#A6A6A6"/>
<mask id="mask0_19_1242" style="mask-type:luminance" maskUnits="userSpaceOnUse" x="2" y="2" width="17" height="16">
<path fill-rule="evenodd" clip-rule="evenodd" d="M4.375 9.16667C4.375 6.40917 6.72962 4.16667 9.625 4.16667C12.5204 4.16667 14.875 6.40917 14.875 9.16667C14.875 11.9242 12.5204 14.1667 9.625 14.1667C6.72962 14.1667 4.375 11.9242 4.375 9.16667M18.1186 16.0775L15.148 13.2475C16.0694 12.1192 16.625 10.705 16.625 9.16667C16.625 5.49083 13.4846 2.5 9.625 2.5C5.76538 2.5 2.625 5.49083 2.625 9.16667C2.625 12.8425 5.76538 15.8333 9.625 15.8333C11.2403 15.8333 12.7251 15.3042 13.9099 14.4267L16.8814 17.2558C17.052 17.4183 17.276 17.5 17.5 17.5C17.724 17.5 17.948 17.4183 18.1186 17.2558C18.4608 16.93 18.4608 16.4033 18.1186 16.0775" fill="white"/>
</mask>
<g mask="url(#mask0_19_1242)">
<rect width="21" height="20" fill="#A6A6A6"/>
</g>
</svg>
